<svg width="101" height="18" viewBox="0 0 101 18" fill="none" xmlns="http://www.w3.org/2000/svg">
<g id="Group 3422">
<g id="Am">
<path d="M7.43016 0.74585C8.87446 0.74585 10.1326 1.03886 11.2047 1.62488C12.2768 2.21089 13.1106 3.0745 13.7062 4.21569C14.3018 5.35689 14.5996 6.73711 14.5996 8.35637V17.216H10.9814V13.3298H3.83428V17.216H0.260742V8.35637C0.260742 6.73711 0.558537 5.35689 1.15413 4.21569C1.74972 3.0745 2.58354 2.21089 3.65561 1.62488C4.72767 1.03886 5.98585 0.74585 7.43016 0.74585ZM10.9814 10.3226V8.00939C10.9814 6.66772 10.6612 5.65761 10.021 4.97906C9.38071 4.28509 8.50966 3.93811 7.40782 3.93811C6.29109 3.93811 5.4126 4.28509 4.77234 4.97906C4.14697 5.65761 3.83428 6.66772 3.83428 8.00939V10.3226H10.9814Z" fill="#3D8FEC"/>
<path d="M33.3137 4.58581C34.8176 4.58581 36.0088 5.04846 36.8873 5.97375C37.7806 6.88362 38.2273 8.25613 38.2273 10.0913V17.216H34.7431V10.6465C34.7431 9.65949 34.5421 8.92697 34.1401 8.4489C33.753 7.95541 33.1946 7.70867 32.465 7.70867C31.6461 7.70867 30.9984 7.98626 30.5219 8.54143C30.0454 9.08119 29.8072 9.89082 29.8072 10.9703V17.216H26.323V10.6465C26.323 8.68794 25.5636 7.70867 24.0449 7.70867C23.2408 7.70867 22.6005 7.98626 22.1241 8.54143C21.6476 9.08119 21.4094 9.89082 21.4094 10.9703V17.216H17.9252V4.77087H21.253V6.20507C21.6997 5.68074 22.2432 5.27978 22.8834 5.00219C23.5386 4.7246 24.2533 4.58581 25.0276 4.58581C25.8763 4.58581 26.6431 4.76316 27.328 5.11785C28.013 5.45713 28.5639 5.95833 28.9808 6.62145C29.4722 5.97375 30.0901 5.47255 30.8346 5.11785C31.594 4.76316 32.4203 4.58581 33.3137 4.58581Z" fill="#3D8FEC"/>
</g>
<g id="work">
<path d="M60.1037 4.76977V11.6401C60.1037 13.4752 59.6197 14.894 58.6519 15.8964C57.6841 16.8988 56.3068 17.4 54.52 17.4C53.6564 17.4 52.8896 17.2612 52.2195 16.9836C51.5644 16.706 51.0135 16.2588 50.5668 15.6419C50.1201 16.2588 49.5692 16.706 48.914 16.9836C48.2589 17.2612 47.4846 17.4 46.5912 17.4C44.7896 17.4 43.4122 16.8988 42.4593 15.8964C41.5064 14.894 41.0299 13.4752 41.0299 11.6401V4.76977H44.5141V11.3625C44.5141 12.3957 44.6853 13.1591 45.0278 13.6526C45.3703 14.1306 45.9063 14.3697 46.6359 14.3697C47.3804 14.3697 47.9313 14.1229 48.2886 13.6294C48.646 13.1359 48.8247 12.3803 48.8247 11.3625V4.76977H52.3089V11.3625C52.3089 12.3803 52.4876 13.1359 52.8449 13.6294C53.2023 14.1229 53.7532 14.3697 54.4977 14.3697C55.2273 14.3697 55.7633 14.1306 56.1058 13.6526C56.4482 13.1591 56.6195 12.3957 56.6195 11.3625V4.76977H60.1037Z" fill="#555555"/>
<path d="M68.9529 17.4C67.6873 17.4 66.5482 17.1301 65.5357 16.5904C64.5381 16.0352 63.7564 15.2718 63.1905 14.3003C62.6247 13.3287 62.3418 12.2261 62.3418 10.9924C62.3418 9.75863 62.6247 8.65599 63.1905 7.68444C63.7564 6.71288 64.5381 5.95723 65.5357 5.41747C66.5482 4.8623 67.6873 4.58471 68.9529 4.58471C70.2185 4.58471 71.3501 4.8623 72.3477 5.41747C73.3454 5.95723 74.1271 6.71288 74.6929 7.68444C75.2587 8.65599 75.5416 9.75863 75.5416 10.9924C75.5416 12.2261 75.2587 13.3287 74.6929 14.3003C74.1271 15.2718 73.3454 16.0352 72.3477 16.5904C71.3501 17.1301 70.2185 17.4 68.9529 17.4ZM68.9529 14.4391C69.8463 14.4391 70.5759 14.1306 71.1417 13.5138C71.7224 12.8815 72.0127 12.041 72.0127 10.9924C72.0127 9.94369 71.7224 9.11093 71.1417 8.49407C70.5759 7.86179 69.8463 7.54564 68.9529 7.54564C68.0595 7.54564 67.3225 7.86179 66.7418 8.49407C66.1611 9.11093 65.8707 9.94369 65.8707 10.9924C65.8707 12.041 66.1611 12.8815 66.7418 13.5138C67.3225 14.1306 68.0595 14.4391 68.9529 14.4391Z" fill="#555555"/>
<path d="M81.1984 6.41216C81.6153 5.81072 82.1736 5.35579 82.8735 5.04736C83.5882 4.73893 84.4071 4.58471 85.3303 4.58471V7.91576C84.9431 7.88492 84.6826 7.8695 84.5486 7.8695C83.5509 7.8695 82.7692 8.16251 82.2034 8.74852C81.6376 9.31912 81.3547 10.1827 81.3547 11.3393V17.2149H77.8705V4.76977H81.1984V6.41216Z" fill="#555555"/>
<path d="M92.5613 12.334L90.8862 14.0458V17.2149H87.402V0.0507812H90.8862V9.76634L95.9785 4.76977H100.133L95.1298 10.0439L100.579 17.2149H96.3582L92.5613 12.334Z" fill="#555555"/>
</g>
</g>
</svg>
